<svg width="84" height="11" viewBox="0 0 84 11" fill="none" xmlns="http://www.w3.org/2000/svg">
<path fill-rule="evenodd" clip-rule="evenodd" d="M4.89361 0.469858C5.11171 -0.156619 5.99769 -0.15662 6.21578 0.469857L7.07498 2.93791C7.17292 3.21924 7.43818 3.40777 7.73607 3.40777H10.4081C11.0978 3.40777 11.3718 4.30002 10.801 4.68712L8.72421 6.09538C8.46179 6.27333 8.35175 6.60544 8.456 6.90488L9.2685 9.23881C9.49009 9.87533 8.77238 10.4266 8.21455 10.0483L5.94756 8.51105C5.71035 8.3502 5.39904 8.3502 5.16183 8.51105L2.89484 10.0483C2.33702 10.4266 1.6193 9.87533 1.84089 9.23881L2.6534 6.90488C2.75764 6.60544 2.6476 6.27333 2.38518 6.09538L0.308434 4.68712C-0.262431 4.30002 0.0115627 3.40777 0.701302 3.40777H3.37333C3.67122 3.40777 3.93647 3.21924 4.03441 2.93791L4.89361 0.469858ZM22.8936 0.469858C23.1117 -0.156619 23.9977 -0.15662 24.2158 0.469857L25.075 2.93791C25.1729 3.21924 25.4382 3.40777 25.7361 3.40777H28.4081C29.0978 3.40777 29.3718 4.30002 28.801 4.68712L26.7242 6.09538C26.4618 6.27333 26.3518 6.60544 26.456 6.90488L27.2685 9.23881C27.4901 9.87533 26.7724 10.4266 26.2146 10.0483L23.9476 8.51105C23.7103 8.3502 23.399 8.3502 23.1618 8.51105L20.8948 10.0483C20.337 10.4266 19.6193 9.87533 19.8409 9.23881L20.6534 6.90488C20.7576 6.60544 20.6476 6.27333 20.3852 6.09538L18.3084 4.68712C17.7376 4.30002 18.0116 3.40777 18.7013 3.40777H21.3733C21.6712 3.40777 21.9365 3.21924 22.0344 2.93791L22.8936 0.469858ZM42.2158 0.469857C41.9977 -0.15662 41.1117 -0.156619 40.8936 0.469858L40.0344 2.93791C39.9365 3.21924 39.6712 3.40777 39.3733 3.40777H36.7013C36.0116 3.40777 35.7376 4.30002 36.3084 4.68712L38.3852 6.09538C38.6476 6.27333 38.7576 6.60544 38.6534 6.90488L37.8409 9.23881C37.6193 9.87533 38.337 10.4266 38.8948 10.0483L41.1618 8.51105C41.399 8.3502 41.7104 8.3502 41.9476 8.51105L44.2146 10.0483C44.7724 10.4266 45.4901 9.87533 45.2685 9.23881L44.456 6.90488C44.3518 6.60544 44.4618 6.27333 44.7242 6.09538L46.801 4.68712C47.3718 4.30002 47.0978 3.40777 46.4081 3.40777H43.7361C43.4382 3.40777 43.1729 3.21924 43.075 2.93791L42.2158 0.469857ZM58.8936 0.469858C59.1117 -0.156619 59.9977 -0.15662 60.2158 0.469857L61.075 2.93791C61.1729 3.21924 61.4382 3.40777 61.7361 3.40777H64.4081C65.0978 3.40777 65.3718 4.30002 64.801 4.68712L62.7242 6.09538C62.4618 6.27333 62.3518 6.60544 62.456 6.90488L63.2685 9.23881C63.4901 9.87533 62.7724 10.4266 62.2146 10.0483L59.9476 8.51105C59.7104 8.3502 59.399 8.3502 59.1618 8.51105L56.8948 10.0483C56.337 10.4266 55.6193 9.87533 55.8409 9.23881L56.6534 6.90488C56.7576 6.60544 56.6476 6.27333 56.3852 6.09538L54.3084 4.68712C53.7376 4.30002 54.0116 3.40777 54.7013 3.40777H57.3733C57.6712 3.40777 57.9365 3.21924 58.0344 2.93791L58.8936 0.469858ZM78.2158 0.469857C77.9977 -0.15662 77.1117 -0.156619 76.8936 0.469858L76.0344 2.93791C75.9365 3.21924 75.6712 3.40777 75.3733 3.40777H72.7013C72.0116 3.40777 71.7376 4.30002 72.3084 4.68712L74.3852 6.09538C74.6476 6.27333 74.7576 6.60544 74.6534 6.90488L73.8409 9.23881C73.6193 9.87533 74.337 10.4266 74.8948 10.0483L77.1618 8.51105C77.399 8.3502 77.7104 8.3502 77.9476 8.51105L80.2146 10.0483C80.7724 10.4266 81.4901 9.87533 81.2685 9.23881L80.456 6.90488C80.3518 6.60544 80.4618 6.27333 80.7242 6.09538L82.801 4.68712C83.3718 4.30002 83.0978 3.40777 82.4081 3.40777H79.7361C79.4382 3.40777 79.1729 3.21924 79.075 2.93791L78.2158 0.469857Z" fill="#F9CE1E"/>
</svg>
